<?xml version="1.0" encoding="UTF-8" standalone="no"?>
<!-- Created with Inkscape (http://www.inkscape.org/) -->

<svg
   width="210mm"
   height="297mm"
   viewBox="0 0 210 297"
   version="1.1"
   id="svg5"
   inkscape:version="1.1.2 (b8e25be833, 2022-02-05)"
   sodipodi:docname="wader.svg"
   xmlns:inkscape="http://www.inkscape.org/namespaces/inkscape"
   xmlns:sodipodi="http://sodipodi.sourceforge.net/DTD/sodipodi-0.dtd"
   xmlns="http://www.w3.org/2000/svg"
   xmlns:svg="http://www.w3.org/2000/svg">
  <sodipodi:namedview
     id="namedview7"
     pagecolor="#505050"
     bordercolor="#ffffff"
     borderopacity="1"
     inkscape:pageshadow="0"
     inkscape:pageopacity="0"
     inkscape:pagecheckerboard="1"
     inkscape:document-units="mm"
     showgrid="false"
     inkscape:zoom="0.57370932"
     inkscape:cx="-410.48662"
     inkscape:cy="646.66894"
     inkscape:window-width="3440"
     inkscape:window-height="1369"
     inkscape:window-x="-8"
     inkscape:window-y="-8"
     inkscape:window-maximized="1"
     inkscape:current-layer="layer2" />
  <defs
     id="defs2">
    <inkscape:path-effect
       effect="powerstroke"
       id="path-effect15556"
       is_visible="true"
       lpeversion="1"
       offset_points="0.85626847,5.9602042 | 2.7848825,7.8886907 | 3.7462028,8.5102221"
       not_jump="false"
       sort_points="true"
       interpolator_type="CentripetalCatmullRom"
       interpolator_beta="0.2"
       start_linecap_type="zerowidth"
       linejoin_type="round"
       miter_limit="4"
       scale_width="1"
       end_linecap_type="round" />
    <inkscape:path-effect
       effect="fillet_chamfer"
       id="path-effect15552"
       is_visible="true"
       lpeversion="1"
       satellites_param="F,0,0,1,0,0,0,1 @ F,0,0,1,0,0,0,1 @ F,0,1,1,0,18.520833,0,1 @ F,0,1,1,0,18.520833,0,1"
       unit="px"
       method="auto"
       mode="F"
       radius="70"
       chamfer_steps="1"
       flexible="false"
       use_knot_distance="true"
       apply_no_radius="true"
       apply_with_radius="true"
       only_selected="true"
       hide_knots="false" />
    <inkscape:path-effect
       effect="fillet_chamfer"
       id="path-effect15548"
       is_visible="true"
       lpeversion="1"
       satellites_param="F,0,0,1,0,18.520833,0,1 @ F,0,0,1,0,18.520833,0,1 @ F,0,0,1,0,18.520833,0,1 @ F,0,0,1,0,18.520833,0,1"
       unit="px"
       method="auto"
       mode="F"
       radius="70"
       chamfer_steps="1"
       flexible="false"
       use_knot_distance="true"
       apply_no_radius="true"
       apply_with_radius="true"
       only_selected="false"
       hide_knots="false" />
    <inkscape:path-effect
       effect="powerstroke"
       id="path-effect12694"
       is_visible="true"
       lpeversion="1"
       offset_points="0.85626847,5.9602042 | 2.6900528,7.5954296 | 3.6467105,7.6171201"
       not_jump="false"
       sort_points="true"
       interpolator_type="CentripetalCatmullRom"
       interpolator_beta="0.2"
       start_linecap_type="zerowidth"
       linejoin_type="round"
       miter_limit="4"
       scale_width="1"
       end_linecap_type="round" />
    <inkscape:path-effect
       effect="fillet_chamfer"
       id="path-effect12145"
       is_visible="true"
       lpeversion="1"
       satellites_param="F,0,0,1,0,0,0,1 @ F,0,0,1,0,0,0,1 @ F,0,1,1,0,18.520833,0,1 @ F,0,1,1,0,18.520833,0,1"
       unit="px"
       method="auto"
       mode="F"
       radius="70"
       chamfer_steps="1"
       flexible="false"
       use_knot_distance="true"
       apply_no_radius="true"
       apply_with_radius="true"
       only_selected="true"
       hide_knots="false" />
    <inkscape:path-effect
       effect="fillet_chamfer"
       id="path-effect12029"
       is_visible="true"
       lpeversion="1"
       satellites_param="F,0,0,1,0,0,0,1 @ IF,0,0,1,0,0,0,1 @ F,0,0,1,0,0,0,1 @ F,0,0,1,0,0,0,1"
       unit="px"
       method="auto"
       mode="F"
       radius="70"
       chamfer_steps="1"
       flexible="false"
       use_knot_distance="true"
       apply_no_radius="true"
       apply_with_radius="true"
       only_selected="true"
       hide_knots="false" />
    <inkscape:path-effect
       effect="fillet_chamfer"
       id="path-effect11913"
       is_visible="true"
       lpeversion="1"
       satellites_param="F,0,0,1,0,0,0,1 @ F,0,0,1,0,0,0,1 @ F,0,0,1,0,0,0,1 @ F,0,0,1,0,0,0,1"
       unit="px"
       method="auto"
       mode="F"
       radius="70"
       chamfer_steps="1"
       flexible="false"
       use_knot_distance="true"
       apply_no_radius="true"
       apply_with_radius="true"
       only_selected="true"
       hide_knots="false" />
    <inkscape:path-effect
       effect="copy_rotate"
       starting_point="0,0"
       origin="0,0"
       id="path-effect4112"
       is_visible="true"
       lpeversion="1"
       method="normal"
       num_copies="2"
       starting_angle="0"
       rotation_angle="119.8"
       gap="-0.01"
       copies_to_360="true"
       mirror_copies="false"
       split_items="false" />
    <inkscape:path-effect
       effect="copy_rotate"
       starting_point="0,0"
       origin="0,0"
       id="path-effect4110"
       is_visible="true"
       lpeversion="1"
       method="normal"
       num_copies="2"
       starting_angle="0"
       rotation_angle="-20"
       gap="-0.01"
       copies_to_360="true"
       mirror_copies="false"
       split_items="false" />
    <inkscape:path-effect
       effect="powerstroke"
       id="path-effect3575"
       is_visible="true"
       lpeversion="1"
       offset_points="0.2,0.1322915 | 0.5,0.1322915 | 0.8,0.1322915"
       not_jump="false"
       sort_points="true"
       interpolator_type="Linear"
       interpolator_beta="0.069277108"
       start_linecap_type="round"
       linejoin_type="round"
       miter_limit="10"
       scale_width="100"
       end_linecap_type="round" />
    <inkscape:path-effect
       effect="fillet_chamfer"
       id="path-effect3466"
       is_visible="true"
       lpeversion="1"
       satellites_param="F,0,0,1,0,21.960417,0,1 @ F,0,0,1,0,21.960417,0,1 @ F,0,0,1,0,21.960417,0,1 @ F,0,0,1,0,21.960417,0,1"
       unit="px"
       method="auto"
       mode="F"
       radius="83"
       chamfer_steps="1"
       flexible="false"
       use_knot_distance="true"
       apply_no_radius="true"
       apply_with_radius="true"
       only_selected="false"
       hide_knots="false" />
    <inkscape:path-effect
       effect="fillet_chamfer"
       id="path-effect3466-3"
       is_visible="true"
       lpeversion="1"
       satellites_param="F,0,0,1,0,18.520833,0,1 @ F,0,0,1,0,18.520833,0,1 @ F,0,0,1,0,18.520833,0,1 @ F,0,0,1,0,18.520833,0,1"
       unit="px"
       method="auto"
       mode="F"
       radius="70"
       chamfer_steps="1"
       flexible="false"
       use_knot_distance="true"
       apply_no_radius="true"
       apply_with_radius="true"
       only_selected="false"
       hide_knots="false" />
    <inkscape:path-effect
       effect="fillet_chamfer"
       id="path-effect3466-3-4"
       is_visible="true"
       lpeversion="1"
       satellites_param="F,0,0,1,0,18.520833,0,1 @ F,0,0,1,0,18.520833,0,1 @ F,0,0,1,0,18.520833,0,1 @ F,0,0,1,0,18.520833,0,1"
       unit="px"
       method="auto"
       mode="F"
       radius="70"
       chamfer_steps="1"
       flexible="false"
       use_knot_distance="true"
       apply_no_radius="true"
       apply_with_radius="true"
       only_selected="false"
       hide_knots="false" />
    <inkscape:path-effect
       effect="fillet_chamfer"
       id="path-effect12145-7"
       is_visible="true"
       lpeversion="1"
       satellites_param="F,0,0,1,0,0,0,1 @ F,0,0,1,0,0,0,1 @ F,0,1,1,0,18.520833,0,1 @ F,0,1,1,0,18.520833,0,1"
       unit="px"
       method="auto"
       mode="F"
       radius="70"
       chamfer_steps="1"
       flexible="false"
       use_knot_distance="true"
       apply_no_radius="true"
       apply_with_radius="true"
       only_selected="true"
       hide_knots="false" />
    <inkscape:path-effect
       effect="powerstroke"
       id="path-effect12694-1"
       is_visible="true"
       lpeversion="1"
       offset_points="0.85626847,5.9602042 | 2.7848825,7.8886906 | 3.7462028,8.510222"
       not_jump="false"
       sort_points="true"
       interpolator_type="CentripetalCatmullRom"
       interpolator_beta="0.2"
       start_linecap_type="zerowidth"
       linejoin_type="round"
       miter_limit="4"
       scale_width="1"
       end_linecap_type="round" />
    <clipPath
       clipPathUnits="userSpaceOnUse"
       id="clipPath15562">
      <path
         style="display:inline;fill:#1c2693;fill-opacity:1;fill-rule:nonzero;stroke:none;stroke-width:7.43466;stroke-linecap:round;stroke-linejoin:round;stroke-miterlimit:4;stroke-dasharray:none;stroke-opacity:1"
         d="m 38.924315,108.87523 c 4.588618,3.06538 11.057146,8.76268 16.958414,18.49227 4.094622,6.75093 7.579159,14.94571 9.504823,23.80637 1.742744,8.01899 2.064896,15.97776 0.704658,22.95781 -0.56565,2.90262 -1.406406,5.55463 -2.498229,7.93463 -0.191479,0.41739 -0.392488,0.83012 -0.603383,1.23763 -1.327052,2.56423 -3.049228,4.92962 -5.270985,6.95952 a 6.5199225,6.3236274 15.884977 0 0 6.227842,10.79101 c 6.51268,-1.6564 12.440645,-4.21899 17.697631,-7.72597 4.966705,-3.31333 9.19613,-7.378 12.700183,-12.08303 3.352766,-4.50189 5.969361,-9.49274 7.944351,-14.80058 1.9133,-5.14209 3.20934,-10.54054 4.00296,-16.02111 1.54464,-10.66692 1.17623,-21.58443 -0.19443,-31.35365 -0.6764,-4.82092 -1.59676,-9.35966 -2.6505,-13.43809 -1.05275,-4.07457 -2.25188,-7.741169 -3.501368,-10.802924 l -12.486844,8.189464 c 15.080462,15.61129 24.167122,29.09958 29.560442,40.32723 5.65511,11.77262 7.34611,21.25861 7.47153,28.3761 0.13833,7.84972 -1.61839,13.58525 -3.11823,17.10069 -0.23703,0.55556 -0.47386,1.07 -0.70492,1.54295 -0.60692,1.24226 -1.19744,2.2564 -1.69877,3.04103 -0.35028,0.54822 -0.65973,0.98883 -0.91417,1.33449 -0.13037,0.17711 -0.24395,0.32626 -0.35591,0.47216 -0.0906,0.118 -0.23801,0.30807 -0.36086,0.47824 a 8.1021635,7.9382738 10.37308 0 0 8.69173,12.31569 c 6.11331,-1.54483 11.52506,-4.3929 16.22493,-8.04256 4.84448,-3.76196 8.93301,-8.37275 12.34073,-13.33855 7.38928,-10.76782 11.87532,-23.59775 14.29033,-35.31696 2.99317,-14.52479 2.96122,-27.73852 1.68607,-37.79657 -0.0237,-0.18679 -0.0479,-0.37311 -0.0725,-0.55896 -0.88118,-6.63673 -2.36416,-12.45036 -4.2317,-17.417436 -2.77587,-7.382935 -6.07106,-12.015094 -8.29732,-14.69549 a 8.5102221,8.5102221 90 0 0 -13.09324,10.87487 c 1.21301,1.460448 3.42794,4.481899 5.42778,9.815416 1.3759,3.66947 2.57143,8.22106 3.32443,13.69836 0.021,0.15301 0.0417,0.30657 0.062,0.46067 1.09814,8.34001 1.20381,19.82707 -1.26355,32.28918 -2.03381,10.2724 -5.75896,20.88417 -11.46196,29.38528 -2.59928,3.87457 -5.53543,7.19286 -8.77465,9.77333 -3.11468,2.48126 -6.50516,4.27869 -10.19006,5.26286 l 8.69172,12.31569 c -0.0219,0.0175 0.0655,-0.12271 0.17163,-0.28752 0.14232,-0.22104 0.29754,-0.45804 0.43986,-0.67908 0.35308,-0.54827 0.79737,-1.25383 1.29795,-2.11566 0.71575,-1.23226 1.53652,-2.76686 2.36337,-4.59775 0.31444,-0.69627 0.63536,-1.44621 0.95518,-2.24877 2.05022,-5.1448 4.29327,-13.03734 4.04275,-23.39579 -0.22785,-9.42115 -2.52011,-21.06019 -9.12726,-34.7102 -6.26779,-12.94891 -16.42602,-27.72777 -32.456194,-44.239772 a 7.6117275,7.5853302 11.64176 0 0 -12.48685,8.189452 c 0.969246,2.31138 1.993054,5.30735 2.940844,8.8423 0.943166,3.5177 1.790534,7.4926 2.432595,11.75038 1.309398,8.68317 1.710493,18.16856 0.550537,27.21339 -0.592947,4.62355 -1.581182,9.03727 -3.007089,13.13764 -1.46891,4.22403 -3.383555,8.0629 -5.768685,11.4618 -2.482949,3.53829 -5.482178,6.61001 -9.051793,9.17306 -3.785964,2.71839 -8.245922,4.88428 -13.429252,6.41392 l 6.227851,10.791 c 3.2956,-3.43895 5.610959,-7.2773 7.191896,-11.13016 0.250926,-0.61153 0.483598,-1.22395 0.699053,-1.83596 1.227134,-3.48572 1.960079,-7.15047 2.267732,-10.89048 0.732084,-8.89967 -0.942995,-18.14178 -4.00755,-26.5921 -3.416472,-9.42071 -8.436267,-17.59121 -13.781845,-23.95633 -7.719626,-9.19195 -15.296001,-13.76631 -20.233665,-16.13443 z"
         id="path15564"
         sodipodi:nodetypes="ccccc"
         inkscape:export-filename="C:\Users\jsett\Downloads\Border.png"
         inkscape:export-xdpi="18.1"
         inkscape:export-ydpi="18.1"
         inkscape:original-d="m 38.924315,108.87523 c 28.392294,16.18386 44.46942,65.01405 23.329834,85.96385 48.346211,-13.17133 39.567771,-75.54852 30.665835,-97.108921 61.296636,63.291801 33.158636,99.421361 31.095916,102.473721 38.68869,-9.98726 49.88545,-86.86352 27.40827,-113.925811"
         inkscape:path-effect="#path-effect15556" />
    </clipPath>
    <inkscape:path-effect
       effect="powerstroke"
       id="path-effect12694-1-3"
       is_visible="true"
       lpeversion="1"
       offset_points="0.85626847,5.9602042 | 2.7848825,7.8886906 | 3.7462028,8.510222"
       not_jump="false"
       sort_points="true"
       interpolator_type="CentripetalCatmullRom"
       interpolator_beta="0.2"
       start_linecap_type="zerowidth"
       linejoin_type="round"
       miter_limit="4"
       scale_width="1"
       end_linecap_type="round" />
    <inkscape:path-effect
       effect="fillet_chamfer"
       id="path-effect12145-7-6"
       is_visible="true"
       lpeversion="1"
       satellites_param="F,0,0,1,0,0,0,1 @ F,0,0,1,0,0,0,1 @ F,0,1,1,0,18.520833,0,1 @ F,0,1,1,0,18.520833,0,1"
       unit="px"
       method="auto"
       mode="F"
       radius="70"
       chamfer_steps="1"
       flexible="false"
       use_knot_distance="true"
       apply_no_radius="true"
       apply_with_radius="true"
       only_selected="true"
       hide_knots="false" />
    <inkscape:path-effect
       effect="fillet_chamfer"
       id="path-effect12145-7-6-8"
       is_visible="true"
       lpeversion="1"
       satellites_param="F,0,0,1,0,0,0,1 @ F,0,0,1,0,0,0,1 @ F,0,1,1,0,18.520833,0,1 @ F,0,1,1,0,18.520833,0,1"
       unit="px"
       method="auto"
       mode="F"
       radius="70"
       chamfer_steps="1"
       flexible="false"
       use_knot_distance="true"
       apply_no_radius="true"
       apply_with_radius="true"
       only_selected="true"
       hide_knots="false" />
    <clipPath
       clipPathUnits="userSpaceOnUse"
       id="clipPath16550">
      <path
         style="display:inline;fill:#00ffff;fill-opacity:1;stroke:none;stroke-width:0.264583px;stroke-linecap:butt;stroke-linejoin:miter;stroke-opacity:1"
         d="M 14.972479,167.51852 C 51.175121,134.54415 144.1029,198.87877 194.60212,167.05734 v 51.11737 a 18.520833,18.520833 135 0 1 -18.52083,18.52083 l -142.587978,0 A 18.520833,18.520833 45 0 1 14.972479,218.17471 Z"
         id="path16552"
         sodipodi:nodetypes="cc"
         inkscape:export-filename="C:\Users\jsett\Downloads\Border.png"
         inkscape:export-xdpi="18.1"
         inkscape:export-ydpi="18.1"
         inkscape:original-d="M 14.972479,167.51852 C 51.175121,134.54415 144.1029,198.87877 194.60212,167.05734 v 69.6382 H 14.972479 Z"
         inkscape:path-effect="#path-effect12145-7-6-8" />
    </clipPath>
    <inkscape:path-effect
       effect="powerstroke"
       id="path-effect12694-1-9"
       is_visible="true"
       lpeversion="1"
       offset_points="0.85626847,5.9602042 | 2.7848825,7.8886906 | 3.7462028,8.510222"
       not_jump="false"
       sort_points="true"
       interpolator_type="CentripetalCatmullRom"
       interpolator_beta="0.2"
       start_linecap_type="zerowidth"
       linejoin_type="round"
       miter_limit="4"
       scale_width="1"
       end_linecap_type="round" />
  </defs>
  <g
     inkscape:groupmode="layer"
     id="layer2"
     inkscape:label="Original"
     style="display:inline">
    <path
       style="display:inline;fill:#ffffff;fill-opacity:1;stroke:none;stroke-width:1.76389;stroke-linejoin:round;stroke-miterlimit:4;stroke-dasharray:none;stroke-opacity:1;paint-order:markers fill stroke"
       id="Border"
       width="179.26601"
       height="179.26601"
       x="15.269596"
       y="57.132423"
       sodipodi:type="rect"
       inkscape:path-effect="#path-effect3466-3-4"
       inkscape:export-filename="C:\Users\jsett\Downloads\wader-16.png"
       inkscape:export-xdpi="2.27"
       inkscape:export-ydpi="2.27"
       d="m 33.790429,57.132423 142.224341,0 A 18.520833,18.520833 45 0 1 194.5356,75.653256 V 217.8776 a 18.520833,18.520833 135 0 1 -18.52083,18.52083 H 33.790429 A 18.520833,18.520833 45 0 1 15.269596,217.8776 l 0,-142.224344 A 18.520833,18.520833 135 0 1 33.790429,57.132423 Z" />
    <path
       style="display:inline;fill:#00cfff;fill-opacity:1;stroke:none;stroke-width:0.264583px;stroke-linecap:butt;stroke-linejoin:miter;stroke-opacity:1"
       d="M 14.972473,167.51852 C 51.175112,134.54415 144.1029,198.87877 194.60212,167.05734 v 51.11737 a 18.520833,18.520833 135 0 1 -18.52083,18.52083 H 33.493306 A 18.520833,18.520833 45 0 1 14.972473,218.17471 Z"
       id="path10699"
       sodipodi:nodetypes="cc"
       inkscape:original-d="M 14.972473,167.51852 C 51.175112,134.54415 144.1029,198.87877 194.60212,167.05734 v 69.6382 H 14.972473 Z"
       inkscape:path-effect="#path-effect12145-7"
       inkscape:export-filename="C:\Users\jsett\Downloads\Border.png"
       inkscape:export-xdpi="18.1"
       inkscape:export-ydpi="18.1" />
    <path
       style="display:inline;fill:#1c2693;fill-opacity:1;fill-rule:nonzero;stroke:none;stroke-width:7.43467;stroke-linecap:round;stroke-linejoin:round;stroke-miterlimit:4;stroke-dasharray:none;stroke-opacity:1"
       d="m 38.924314,108.87523 c 4.588618,3.06538 11.057147,8.76268 16.958415,18.49227 4.094621,6.75093 7.579158,14.94571 9.504822,23.80637 1.742744,8.01899 2.064896,15.97776 0.704658,22.95781 -0.56565,2.90262 -1.406406,5.55463 -2.498229,7.93463 -0.191479,0.41739 -0.392488,0.83012 -0.603382,1.23763 -1.327053,2.56423 -3.049229,4.92962 -5.270986,6.95952 a 6.5199225,6.3236274 15.884977 0 0 6.227842,10.79101 c 6.51268,-1.6564 12.440645,-4.21899 17.697631,-7.72597 4.966706,-3.31333 9.196131,-7.378 12.700184,-12.08303 3.352766,-4.50189 5.969361,-9.49274 7.944351,-14.80058 1.9133,-5.14209 3.20933,-10.54054 4.00296,-16.02111 1.54464,-10.66692 1.17623,-21.58443 -0.19443,-31.35365 -0.6764,-4.82092 -1.59676,-9.35965 -2.6505,-13.43809 -1.05274,-4.07457 -2.25188,-7.741168 -3.501367,-10.802923 l -12.486844,8.189463 c 15.080461,15.61129 24.167121,29.09958 29.560441,40.32723 5.65511,11.77262 7.34611,21.25861 7.47153,28.3761 0.13833,7.84972 -1.61839,13.58525 -3.11823,17.10069 -0.23703,0.55556 -0.47386,1.07 -0.70492,1.54295 -0.60692,1.24226 -1.19744,2.2564 -1.69877,3.04103 -0.35028,0.54822 -0.65973,0.98883 -0.91417,1.33449 -0.13037,0.17711 -0.24395,0.32626 -0.35591,0.47216 -0.0906,0.118 -0.23801,0.30807 -0.36086,0.47824 a 8.1021634,7.9382737 10.37308 0 0 8.69173,12.31569 c 6.11331,-1.54483 11.52506,-4.3929 16.22493,-8.04256 4.84448,-3.76196 8.93301,-8.37275 12.34073,-13.33855 7.38928,-10.76782 11.87532,-23.59775 14.29033,-35.31696 2.99317,-14.52479 2.96122,-27.73852 1.68607,-37.79657 -0.0237,-0.18679 -0.0479,-0.37311 -0.0725,-0.55896 -0.88118,-6.63673 -2.36416,-12.45036 -4.2317,-17.417436 -2.77587,-7.382935 -6.07106,-12.015093 -8.29732,-14.695489 a 8.5102252,8.5102252 90 0 0 -13.09324,10.87487 c 1.21301,1.460448 3.42794,4.481899 5.42778,9.815415 1.3759,3.66947 2.57143,8.22106 3.32443,13.69836 0.021,0.15301 0.0417,0.30657 0.062,0.46067 1.09814,8.34001 1.20381,19.82707 -1.26355,32.28918 -2.03381,10.2724 -5.75896,20.88417 -11.46196,29.38528 -2.59928,3.87457 -5.53543,7.19286 -8.77465,9.77333 -3.11468,2.48126 -6.50516,4.2787 -10.19006,5.26286 l 8.69172,12.31569 c -0.0219,0.0175 0.0655,-0.12271 0.17163,-0.28752 0.14232,-0.22104 0.29754,-0.45804 0.43986,-0.67908 0.35308,-0.54827 0.79737,-1.25383 1.29795,-2.11566 0.71575,-1.23226 1.53652,-2.76686 2.36337,-4.59775 0.31444,-0.69627 0.63536,-1.44621 0.95518,-2.24877 2.05022,-5.1448 4.29327,-13.03734 4.04275,-23.39579 -0.22785,-9.42115 -2.52011,-21.06019 -9.12726,-34.7102 -6.26779,-12.94891 -16.42601,-27.72777 -32.456193,-44.239771 a 7.6117274,7.5853301 11.64176 0 0 -12.48685,8.189451 c 0.969245,2.31138 1.993054,5.30735 2.940844,8.8423 0.943165,3.5177 1.790533,7.4926 2.432594,11.75038 1.309399,8.68317 1.710493,18.16856 0.550537,27.21339 -0.592947,4.62355 -1.581182,9.03727 -3.007089,13.13764 -1.46891,4.22403 -3.383555,8.0629 -5.768686,11.4618 -2.482949,3.53829 -5.482177,6.61001 -9.051792,9.17306 -3.785965,2.71839 -8.245923,4.88428 -13.429253,6.41392 l 6.227851,10.791 c 3.2956,-3.43895 5.610959,-7.2773 7.191896,-11.13016 0.250926,-0.61153 0.483598,-1.22395 0.699053,-1.83596 1.227134,-3.48572 1.960079,-7.15047 2.267732,-10.89048 0.732084,-8.89967 -0.942994,-18.14178 -4.00755,-26.5921 -3.416471,-9.42071 -8.436267,-17.59121 -13.781844,-23.95633 -7.719626,-9.19195 -15.296002,-13.76631 -20.233666,-16.13443 z"
       id="path6337"
       sodipodi:nodetypes="ccccc"
       inkscape:path-effect="#path-effect12694-1"
       inkscape:original-d="m 38.924314,108.87523 c 28.392295,16.18386 44.46942,65.01405 23.329834,85.96385 48.346212,-13.17133 39.567772,-75.54852 30.665837,-97.10892 61.296635,63.2918 33.158635,99.42136 31.095915,102.47372 38.68869,-9.98726 49.88545,-86.86352 27.40827,-113.92581"
       inkscape:export-filename="C:\Users\jsett\Downloads\Border.png"
       inkscape:export-xdpi="18.1"
       inkscape:export-ydpi="18.1" />
  </g>
  <g
     inkscape:groupmode="layer"
     id="g15544"
     inkscape:label="ALternative"
     style="display:none"
     sodipodi:insensitive="true">
    <path
       style="display:inline;fill:#ffffff;fill-opacity:1;stroke:none;stroke-width:1.76389;stroke-linejoin:round;stroke-miterlimit:4;stroke-dasharray:none;stroke-opacity:1;paint-order:markers fill stroke"
       id="path15538"
       width="179.26601"
       height="179.26601"
       x="15.269596"
       y="57.132423"
       sodipodi:type="rect"
       inkscape:path-effect="#path-effect15548"
       inkscape:export-filename="C:\Users\jsett\Downloads\Border.png"
       inkscape:export-xdpi="18.1"
       inkscape:export-ydpi="18.1"
       d="m 33.790429,57.132423 142.224341,0 A 18.520833,18.520833 45 0 1 194.5356,75.653256 V 217.8776 a 18.520833,18.520833 135 0 1 -18.52083,18.52083 H 33.790429 A 18.520833,18.520833 45 0 1 15.269596,217.8776 l 0,-142.224344 A 18.520833,18.520833 135 0 1 33.790429,57.132423 Z" />
    <path
       style="display:inline;fill:#1c2693;fill-opacity:1;fill-rule:nonzero;stroke:none;stroke-width:7.43467;stroke-linecap:round;stroke-linejoin:round;stroke-miterlimit:4;stroke-dasharray:none;stroke-opacity:1"
       d="m 38.924309,108.87523 c 4.588618,3.06538 11.057147,8.76268 16.958415,18.49227 4.094621,6.75093 7.579158,14.94571 9.504822,23.80637 1.742744,8.01899 2.064896,15.97776 0.704658,22.95781 -0.56565,2.90262 -1.406406,5.55463 -2.498229,7.93463 -0.191479,0.41739 -0.392488,0.83012 -0.603382,1.23763 -1.327053,2.56423 -3.049229,4.92962 -5.270986,6.95952 a 6.5199225,6.3236274 15.884977 0 0 6.227842,10.79101 c 6.512681,-1.6564 12.440646,-4.21899 17.697632,-7.72597 4.966707,-3.31333 9.196132,-7.378 12.700185,-12.08303 3.352767,-4.50189 5.969364,-9.49274 7.944344,-14.80058 1.91331,-5.14209 3.20934,-10.54054 4.00297,-16.02111 1.54464,-10.66692 1.17623,-21.58443 -0.19443,-31.35365 -0.6764,-4.82092 -1.59676,-9.35966 -2.6505,-13.43809 -1.05275,-4.07457 -2.25189,-7.741171 -3.501377,-10.802926 l -12.486842,8.189466 c 15.080469,15.61129 24.167119,29.09958 29.560449,40.32723 5.65511,11.77262 7.3461,21.25861 7.47153,28.3761 0.13833,7.84972 -1.61839,13.58525 -3.11823,17.10069 -0.23703,0.55556 -0.47386,1.07 -0.70492,1.54295 -0.60692,1.24226 -1.19744,2.2564 -1.69877,3.04103 -0.35028,0.54822 -0.65973,0.98883 -0.91417,1.33449 -0.13037,0.17711 -0.24395,0.32626 -0.35591,0.47216 -0.0906,0.118 -0.23801,0.30807 -0.36086,0.47824 a 8.1021634,7.9382737 10.37308 0 0 8.69173,12.31569 c 6.11331,-1.54483 11.52506,-4.3929 16.22493,-8.04256 4.84448,-3.76196 8.93301,-8.37275 12.34073,-13.33855 7.38928,-10.76782 11.87532,-23.59775 14.29033,-35.31696 2.99317,-14.52479 2.96122,-27.73852 1.68607,-37.79657 -0.0237,-0.18679 -0.0479,-0.37311 -0.0725,-0.55896 -0.88118,-6.63673 -2.36416,-12.45036 -4.2317,-17.417436 -2.77587,-7.382935 -6.07106,-12.015094 -8.29732,-14.69549 a 8.5102252,8.5102252 90 0 0 -13.09324,10.87487 c 1.21301,1.460448 3.42794,4.481899 5.42778,9.815416 1.3759,3.66947 2.57143,8.22106 3.32443,13.69836 0.021,0.15301 0.0417,0.30657 0.062,0.46067 1.09814,8.34001 1.20381,19.82707 -1.26355,32.28918 -2.03381,10.2724 -5.75896,20.88417 -11.46196,29.38528 -2.59928,3.87457 -5.53543,7.19286 -8.77465,9.77333 -3.11468,2.48126 -6.50516,4.2787 -10.19006,5.26286 l 8.69172,12.31569 c -0.0219,0.0175 0.0655,-0.12271 0.17163,-0.28752 0.14232,-0.22104 0.29754,-0.45804 0.43986,-0.67908 0.35308,-0.54827 0.79737,-1.25383 1.29795,-2.11566 0.71575,-1.23226 1.53652,-2.76686 2.36337,-4.59775 0.31444,-0.69627 0.63536,-1.44621 0.95518,-2.24877 2.05022,-5.1448 4.29327,-13.03734 4.04275,-23.39579 -0.22786,-9.42115 -2.52011,-21.06019 -9.12727,-34.7102 -6.26778,-12.94891 -16.42601,-27.72777 -32.456193,-44.239772 A 7.6117274,7.5853301 11.641749 0 0 85.893679,100.6312 c 0.969246,2.31138 1.993056,5.30735 2.940846,8.8423 0.943166,3.5177 1.790535,7.4926 2.432597,11.75038 1.309399,8.68317 1.710494,18.16856 0.550539,27.21339 -0.592948,4.62355 -1.581182,9.03727 -3.00709,13.13764 -1.46891,4.22403 -3.383555,8.0629 -5.768686,11.4618 -2.482949,3.53829 -5.482178,6.61001 -9.051793,9.17306 -3.785965,2.71839 -8.245924,4.88428 -13.429255,6.41392 l 6.227851,10.791 c 3.2956,-3.43895 5.610959,-7.2773 7.191896,-11.13016 0.250926,-0.61153 0.483598,-1.22395 0.699053,-1.83596 1.227134,-3.48572 1.960079,-7.15047 2.267732,-10.89048 0.732084,-8.89967 -0.942994,-18.14178 -4.00755,-26.5921 -3.416471,-9.42071 -8.436267,-17.59121 -13.781844,-23.95633 -7.719626,-9.19195 -15.296002,-13.76631 -20.233666,-16.13443 z"
       id="path6337-1"
       sodipodi:nodetypes="ccccc"
       inkscape:path-effect="#path-effect12694-1-9"
       inkscape:original-d="m 38.924309,108.87523 c 28.392295,16.18386 44.46942,65.01405 23.329834,85.96385 48.346217,-13.17133 39.567777,-75.54852 30.665833,-97.108921 61.296644,63.291801 33.158644,99.421361 31.095924,102.473721 38.68869,-9.98726 49.88545,-86.86352 27.40827,-113.925811"
       inkscape:export-filename="C:\Users\jsett\Downloads\Border.png"
       inkscape:export-xdpi="18.1"
       inkscape:export-ydpi="18.1" />
    <path
       style="display:inline;fill:#00cfff;fill-opacity:1;stroke:none;stroke-width:0.264583px;stroke-linecap:butt;stroke-linejoin:miter;stroke-opacity:1"
       d="m 14.972445,167.51852 c 36.202639,-32.97437 129.130425,31.36025 179.629645,-0.46118 v 51.11737 a 18.520833,18.520833 135 0 1 -18.52083,18.52083 H 33.493278 A 18.520833,18.520833 45 0 1 14.972445,218.17471 Z"
       id="path10699-0"
       sodipodi:nodetypes="cc"
       inkscape:export-filename="C:\Users\jsett\Downloads\Border.png"
       inkscape:export-xdpi="18.1"
       inkscape:export-ydpi="18.1"
       inkscape:original-d="m 14.972445,167.51852 c 36.202639,-32.97437 129.130425,31.36025 179.629645,-0.46118 v 69.6382 H 14.972445 Z"
       inkscape:path-effect="#path-effect12145-7-6" />
    <path
       style="fill:#ffffff;fill-opacity:1;stroke:none;stroke-width:7.43467;stroke-linecap:round;stroke-linejoin:round"
       d="m 38.924311,108.87523 c 4.588618,3.06538 11.057147,8.76268 16.958415,18.49227 4.094621,6.75093 7.579158,14.94571 9.504822,23.80637 1.742744,8.01899 2.064896,15.97776 0.704658,22.95781 -0.56565,2.90262 -1.406406,5.55463 -2.498229,7.93463 -0.191479,0.41739 -0.392488,0.83012 -0.603383,1.23763 -1.327052,2.56423 -3.049228,4.92962 -5.270985,6.95952 a 6.5199226,6.3236274 15.884976 0 0 6.227842,10.79101 c 6.51268,-1.6564 12.440644,-4.21899 17.697629,-7.72597 4.966705,-3.31333 9.196129,-7.378 12.700182,-12.08303 3.352766,-4.50189 5.969368,-9.49274 7.944348,-14.80058 1.9133,-5.14209 3.20934,-10.54054 4.00296,-16.02111 1.54464,-10.66692 1.17624,-21.58443 -0.19443,-31.35365 -0.67639,-4.82092 -1.59675,-9.35965 -2.65049,-13.43808 -1.05275,-4.07458 -2.25188,-7.741178 -3.501367,-10.802933 l -12.486845,8.189453 c 15.080462,15.6113 24.167112,29.09959 29.560442,40.32724 5.6551,11.77262 7.3461,21.25861 7.47152,28.3761 0.13833,7.84972 -1.61839,13.58525 -3.11823,17.10069 -0.23703,0.55556 -0.47386,1.07 -0.70492,1.54295 -0.60692,1.24226 -1.19744,2.2564 -1.69877,3.04103 -0.35028,0.54822 -0.65973,0.98883 -0.91417,1.33449 -0.13037,0.17711 -0.24395,0.32626 -0.35591,0.47216 -0.0906,0.118 -0.23801,0.30807 -0.36086,0.47824 a 8.1021634,7.9382737 10.37308 0 0 8.69173,12.31569 c 6.11331,-1.54483 11.52506,-4.3929 16.22493,-8.04256 4.84448,-3.76196 8.93301,-8.37275 12.34073,-13.33855 7.38928,-10.76782 11.87532,-23.59775 14.29033,-35.31696 2.99317,-14.52479 2.96122,-27.73852 1.68607,-37.79657 -0.0237,-0.18679 -0.0479,-0.37311 -0.0725,-0.55896 -0.88118,-6.63673 -2.36416,-12.45037 -4.2317,-17.417438 -2.77587,-7.382935 -6.07106,-12.015094 -8.29732,-14.69549 a 8.5102252,8.5102252 0 0 0 -13.09324,10.87487 c 1.21301,1.460448 3.42794,4.481899 5.42778,9.815418 1.3759,3.66947 2.57143,8.22106 3.32443,13.69836 0.021,0.15301 0.0417,0.30657 0.062,0.46067 1.09814,8.34001 1.20381,19.82707 -1.26355,32.28918 -2.03381,10.2724 -5.75896,20.88417 -11.46196,29.38528 -2.59928,3.87457 -5.53543,7.19286 -8.77465,9.77333 -3.11468,2.48126 -6.50516,4.2787 -10.19006,5.26286 l 8.69172,12.31569 c -0.0219,0.0175 0.0655,-0.12271 0.17163,-0.28752 0.14232,-0.22104 0.29754,-0.45804 0.43986,-0.67908 0.35308,-0.54827 0.79737,-1.25383 1.29795,-2.11566 0.71575,-1.23226 1.53652,-2.76686 2.36337,-4.59775 0.31444,-0.69626 0.63536,-1.44621 0.95518,-2.24877 2.05022,-5.1448 4.29327,-13.03734 4.04275,-23.39579 -0.22785,-9.42115 -2.52011,-21.06019 -9.12726,-34.7102 -6.26778,-12.94891 -16.42601,-27.72777 -32.456184,-44.239774 A 7.6117275,7.5853302 11.641774 0 0 85.893685,100.6312 c 0.969245,2.31138 1.993052,5.30735 2.940841,8.8423 0.943165,3.51769 1.790533,7.4926 2.432593,11.75038 1.309397,8.68317 1.710491,18.16856 0.550535,27.21339 -0.592947,4.62355 -1.581182,9.03727 -3.007089,13.13764 -1.46891,4.22403 -3.383555,8.0629 -5.768685,11.4618 -2.482949,3.53829 -5.482177,6.61001 -9.051791,9.17306 -3.785964,2.71839 -8.245921,4.88428 -13.42925,6.41392 l 6.227851,10.791 c 3.2956,-3.43895 5.610959,-7.2773 7.191896,-11.13016 0.250926,-0.61153 0.483598,-1.22395 0.699053,-1.83596 1.227134,-3.48572 1.960079,-7.15047 2.267732,-10.89048 0.732084,-8.89967 -0.942994,-18.14178 -4.00755,-26.5921 -3.416471,-9.42071 -8.436267,-17.59121 -13.781844,-23.95633 -7.719626,-9.19195 -15.296002,-13.76631 -20.233666,-16.13443 z"
       id="path6337-5"
       sodipodi:nodetypes="ccccc"
       inkscape:export-filename="C:\Users\jsett\Downloads\Border.png"
       inkscape:export-xdpi="18.1"
       inkscape:export-ydpi="18.1"
       clip-path="url(#clipPath16550)"
       transform="translate(-3.136922e-5)" />
  </g>
</svg>
